<mxfile host="app.diagrams.net" agent="Mozilla/5.0 (X11; Ubuntu; Linux x86_64; rv:127.0) Gecko/20100101 Firefox/127.0" version="24.7.17">
  <diagram name="PÃ¡gina-1" id="l5wb5mPs8a255xO1etQW">
    <mxGraphModel dx="1434" dy="742" grid="1" gridSize="10" guides="1" tooltips="1" connect="1" arrows="1" fold="1" page="1" pageScale="1" pageWidth="827" pageHeight="1169" math="0" shadow="0">
      <root>
        <mxCell id="0" />
        <mxCell id="1" parent="0" />
        <mxCell id="t4Dxq5dZQDl562DboRq6-1" value="Crews" style="swimlane;childLayout=stackLayout;horizontal=1;startSize=50;horizontalStack=0;rounded=1;fontSize=14;fontStyle=0;strokeWidth=2;resizeParent=0;resizeLast=1;shadow=0;dashed=0;align=center;arcSize=4;whiteSpace=wrap;html=1;fillColor=#e1d5e7;strokeColor=#9673a6;" vertex="1" parent="1">
          <mxGeometry x="50" y="180" width="160" height="160" as="geometry" />
        </mxCell>
        <mxCell id="t4Dxq5dZQDl562DboRq6-2" value="&lt;div&gt;+id&lt;/div&gt;&lt;div&gt;+name&lt;/div&gt;&lt;div&gt;+color&lt;/div&gt;&lt;div&gt;+slogan&lt;/div&gt;&lt;div&gt;+capacity_people&lt;/div&gt;&lt;div&gt;+foundation_date&lt;/div&gt;&lt;div&gt;+ts&lt;br&gt;&lt;/div&gt;" style="align=left;strokeColor=none;fillColor=none;spacingLeft=4;fontSize=12;verticalAlign=top;resizable=0;rotatable=0;part=1;html=1;" vertex="1" parent="t4Dxq5dZQDl562DboRq6-1">
          <mxGeometry y="50" width="160" height="110" as="geometry" />
        </mxCell>
        <mxCell id="t4Dxq5dZQDl562DboRq6-3" value="Location" style="swimlane;childLayout=stackLayout;horizontal=1;startSize=50;horizontalStack=0;rounded=1;fontSize=14;fontStyle=0;strokeWidth=2;resizeParent=0;resizeLast=1;shadow=0;dashed=0;align=center;arcSize=4;whiteSpace=wrap;html=1;fillColor=#dae8fc;strokeColor=#6c8ebf;" vertex="1" parent="1">
          <mxGeometry x="50" y="480" width="160" height="130" as="geometry" />
        </mxCell>
        <mxCell id="t4Dxq5dZQDl562DboRq6-4" value="+id&lt;br&gt;+x&lt;br&gt;&lt;div&gt;+y&lt;/div&gt;&lt;div&gt;+year&lt;/div&gt;&lt;div&gt;+ts&lt;br&gt;&lt;/div&gt;" style="align=left;strokeColor=none;fillColor=none;spacingLeft=4;fontSize=12;verticalAlign=top;resizable=0;rotatable=0;part=1;html=1;" vertex="1" parent="t4Dxq5dZQDl562DboRq6-3">
          <mxGeometry y="50" width="160" height="80" as="geometry" />
        </mxCell>
        <mxCell id="t4Dxq5dZQDl562DboRq6-5" value="User-crew" style="swimlane;childLayout=stackLayout;horizontal=1;startSize=50;horizontalStack=0;rounded=1;fontSize=14;fontStyle=0;strokeWidth=2;resizeParent=0;resizeLast=1;shadow=0;dashed=0;align=center;arcSize=4;whiteSpace=wrap;html=1;fillColor=#f8cecc;strokeColor=#b85450;" vertex="1" parent="1">
          <mxGeometry x="610" y="180" width="160" height="120" as="geometry" />
        </mxCell>
        <mxCell id="t4Dxq5dZQDl562DboRq6-6" value="+id&lt;br&gt;+user_id&lt;br&gt;+crew_id" style="align=left;strokeColor=none;fillColor=none;spacingLeft=4;fontSize=12;verticalAlign=top;resizable=0;rotatable=0;part=1;html=1;" vertex="1" parent="t4Dxq5dZQDl562DboRq6-5">
          <mxGeometry y="50" width="160" height="70" as="geometry" />
        </mxCell>
        <mxCell id="t4Dxq5dZQDl562DboRq6-7" value="Payments" style="swimlane;childLayout=stackLayout;horizontal=1;startSize=50;horizontalStack=0;rounded=1;fontSize=14;fontStyle=0;strokeWidth=2;resizeParent=0;resizeLast=1;shadow=0;dashed=0;align=center;arcSize=4;whiteSpace=wrap;html=1;fillColor=#ffe6cc;strokeColor=#d79b00;" vertex="1" parent="1">
          <mxGeometry x="610" y="480" width="160" height="150" as="geometry" />
        </mxCell>
        <mxCell id="t4Dxq5dZQDl562DboRq6-8" value="+id&lt;br&gt;+user_crew_id&lt;br&gt;&lt;div&gt;+id_crew&lt;/div&gt;&lt;div&gt;+import&lt;/div&gt;&lt;div&gt;+status&lt;/div&gt;&lt;div&gt;+ts&lt;br&gt;&lt;/div&gt;" style="align=left;strokeColor=none;fillColor=none;spacingLeft=4;fontSize=12;verticalAlign=top;resizable=0;rotatable=0;part=1;html=1;" vertex="1" parent="t4Dxq5dZQDl562DboRq6-7">
          <mxGeometry y="50" width="160" height="100" as="geometry" />
        </mxCell>
        <mxCell id="t4Dxq5dZQDl562DboRq6-9" value="Users" style="swimlane;childLayout=stackLayout;horizontal=1;startSize=50;horizontalStack=0;rounded=1;fontSize=14;fontStyle=0;strokeWidth=2;resizeParent=0;resizeLast=1;shadow=0;dashed=0;align=center;arcSize=4;whiteSpace=wrap;html=1;fillColor=#d5e8d4;strokeColor=#82b366;" vertex="1" parent="1">
          <mxGeometry x="334" y="40" width="160" height="160" as="geometry" />
        </mxCell>
        <mxCell id="t4Dxq5dZQDl562DboRq6-10" value="+id&lt;br&gt;+name&lt;br&gt;&lt;div&gt;+surname&lt;/div&gt;&lt;div&gt;+email-&amp;gt;(required)&lt;/div&gt;&lt;div&gt;+birthday&lt;/div&gt;&lt;div&gt;+password&lt;/div&gt;&lt;div&gt;-ts&lt;br&gt;&lt;/div&gt;" style="align=left;strokeColor=none;fillColor=none;spacingLeft=4;fontSize=12;verticalAlign=top;resizable=0;rotatable=0;part=1;html=1;" vertex="1" parent="t4Dxq5dZQDl562DboRq6-9">
          <mxGeometry y="50" width="160" height="110" as="geometry" />
        </mxCell>
        <mxCell id="t4Dxq5dZQDl562DboRq6-11" value="Draws" style="swimlane;childLayout=stackLayout;horizontal=1;startSize=50;horizontalStack=0;rounded=1;fontSize=14;fontStyle=0;strokeWidth=2;resizeParent=0;resizeLast=1;shadow=0;dashed=0;align=center;arcSize=4;whiteSpace=wrap;html=1;fillColor=#b0e3e6;strokeColor=#0e8088;" vertex="1" parent="1">
          <mxGeometry x="210" y="660" width="160" height="120" as="geometry" />
        </mxCell>
        <mxCell id="t4Dxq5dZQDl562DboRq6-12" value="+id&lt;br&gt;+crew_id&lt;br&gt;&lt;div&gt;+location_id&lt;/div&gt;&lt;div&gt;+ts&lt;br&gt;&lt;/div&gt;" style="align=left;strokeColor=none;fillColor=none;spacingLeft=4;fontSize=12;verticalAlign=top;resizable=0;rotatable=0;part=1;html=1;" vertex="1" parent="t4Dxq5dZQDl562DboRq6-11">
          <mxGeometry y="50" width="160" height="70" as="geometry" />
        </mxCell>
        <mxCell id="t4Dxq5dZQDl562DboRq6-13" value="Plataform" style="swimlane;childLayout=stackLayout;horizontal=1;startSize=50;horizontalStack=0;rounded=1;fontSize=14;fontStyle=0;strokeWidth=2;resizeParent=0;resizeLast=1;shadow=0;dashed=0;align=center;arcSize=4;whiteSpace=wrap;html=1;fillColor=#ffcc99;strokeColor=#36393d;" vertex="1" parent="1">
          <mxGeometry x="430" y="660" width="160" height="150" as="geometry" />
        </mxCell>
        <mxCell id="t4Dxq5dZQDl562DboRq6-14" value="+id&lt;br&gt;+color&lt;br&gt;&lt;div&gt;+height&lt;/div&gt;&lt;div&gt;+width&lt;/div&gt;&lt;div&gt;+capacity&lt;/div&gt;&lt;div&gt;+ts&lt;br&gt;&lt;/div&gt;" style="align=left;strokeColor=none;fillColor=none;spacingLeft=4;fontSize=12;verticalAlign=top;resizable=0;rotatable=0;part=1;html=1;" vertex="1" parent="t4Dxq5dZQDl562DboRq6-13">
          <mxGeometry y="50" width="160" height="100" as="geometry" />
        </mxCell>
        <mxCell id="t4Dxq5dZQDl562DboRq6-20" value="" style="edgeStyle=entityRelationEdgeStyle;fontSize=12;html=1;endArrow=ERmandOne;startArrow=ERmandOne;rounded=0;entryX=0.069;entryY=0.008;entryDx=0;entryDy=0;exitX=1;exitY=0.325;exitDx=0;exitDy=0;exitPerimeter=0;entryPerimeter=0;" edge="1" parent="1" source="t4Dxq5dZQDl562DboRq6-9" target="t4Dxq5dZQDl562DboRq6-5">
          <mxGeometry width="100" height="100" relative="1" as="geometry">
            <mxPoint x="494" y="110" as="sourcePoint" />
            <mxPoint x="618" y="110" as="targetPoint" />
          </mxGeometry>
        </mxCell>
        <mxCell id="t4Dxq5dZQDl562DboRq6-21" value="" style="edgeStyle=entityRelationEdgeStyle;fontSize=12;html=1;endArrow=ERoneToMany;rounded=0;exitX=1;exitY=0.5;exitDx=0;exitDy=0;" edge="1" parent="1" source="t4Dxq5dZQDl562DboRq6-2">
          <mxGeometry width="100" height="100" relative="1" as="geometry">
            <mxPoint x="370" y="460" as="sourcePoint" />
            <mxPoint x="610" y="260" as="targetPoint" />
          </mxGeometry>
        </mxCell>
        <mxCell id="t4Dxq5dZQDl562DboRq6-22" value="" style="edgeStyle=entityRelationEdgeStyle;fontSize=12;html=1;endArrow=ERmandOne;startArrow=ERmandOne;rounded=0;exitX=0.5;exitY=1;exitDx=0;exitDy=0;entryX=0.063;entryY=0.286;entryDx=0;entryDy=0;entryPerimeter=0;" edge="1" parent="1" source="t4Dxq5dZQDl562DboRq6-4" target="t4Dxq5dZQDl562DboRq6-12">
          <mxGeometry width="100" height="100" relative="1" as="geometry">
            <mxPoint x="50" y="740" as="sourcePoint" />
            <mxPoint x="150" y="640" as="targetPoint" />
            <Array as="points">
              <mxPoint x="150" y="640" />
            </Array>
          </mxGeometry>
        </mxCell>
        <mxCell id="t4Dxq5dZQDl562DboRq6-23" value="" style="edgeStyle=entityRelationEdgeStyle;fontSize=12;html=1;endArrow=ERmandOne;startArrow=ERmandOne;rounded=0;exitX=1;exitY=0.75;exitDx=0;exitDy=0;entryX=0.5;entryY=0;entryDx=0;entryDy=0;" edge="1" parent="1" source="t4Dxq5dZQDl562DboRq6-2" target="t4Dxq5dZQDl562DboRq6-11">
          <mxGeometry width="100" height="100" relative="1" as="geometry">
            <mxPoint x="240" y="310" as="sourcePoint" />
            <mxPoint x="330" y="430" as="targetPoint" />
            <Array as="points">
              <mxPoint x="260" y="340" />
            </Array>
          </mxGeometry>
        </mxCell>
        <mxCell id="t4Dxq5dZQDl562DboRq6-25" value="" style="edgeStyle=entityRelationEdgeStyle;fontSize=12;html=1;endArrow=ERoneToMany;rounded=0;exitX=0.5;exitY=0;exitDx=0;exitDy=0;entryX=0.663;entryY=1.043;entryDx=0;entryDy=0;entryPerimeter=0;" edge="1" parent="1" source="t4Dxq5dZQDl562DboRq6-7" target="t4Dxq5dZQDl562DboRq6-6">
          <mxGeometry width="100" height="100" relative="1" as="geometry">
            <mxPoint x="580" y="470" as="sourcePoint" />
            <mxPoint x="700" y="310" as="targetPoint" />
            <Array as="points">
              <mxPoint x="640" y="215" />
              <mxPoint x="500" y="385" />
              <mxPoint x="700" y="360" />
            </Array>
          </mxGeometry>
        </mxCell>
      </root>
    </mxGraphModel>
  </diagram>
</mxfile>
